<svg aria-hidden="true" style="position: absolute; width: 0; height: 0; overflow: hidden;" version="1.1" xmlns="http://www.w3.org/2000/svg" xmlns:xlink="http://www.w3.org/1999/xlink">
<defs>
<symbol id="icon-shield-lock" viewBox="0 0 16 16">
<path d="M5.338 1.59c-1.388 0.375-2.334 0.668-3.27 0.982l0.433-0.126c-0.173 0.057-0.301 0.206-0.328 0.387l-0 0.003c-0.554 4.157 0.726 7.19 2.253 9.188 0.654 0.859 1.408 1.596 2.256 2.212l0.031 0.021c0.346 0.244 0.652 0.42 0.893 0.533 0.12 0.057 0.218 0.095 0.293 0.118 0.029 0.011 0.063 0.019 0.098 0.025l0.003 0c0.038-0.006 0.072-0.015 0.104-0.026l-0.004 0.001c0.076-0.023 0.174-0.061 0.294-0.118 0.24-0.113 0.547-0.29 0.893-0.533 0.879-0.637 1.633-1.374 2.268-2.207l0.019-0.026c1.527-1.997 2.807-5.031 2.253-9.188-0.027-0.184-0.155-0.333-0.325-0.389l-0.003-0.001c-0.651-0.213-1.75-0.56-2.837-0.855-1.11-0.301-2.131-0.524-2.662-0.524s-1.552 0.223-2.662 0.524zM5.072 0.56c1.085-0.295 2.238-0.56 2.928-0.56s1.843 0.265 2.928 0.56c1.11 0.3 2.229 0.655 2.887 0.87 0.556 0.188 0.964 0.669 1.043 1.254l0.001 0.008c0.596 4.477-0.787 7.795-2.465 9.99-0.72 0.944-1.55 1.753-2.483 2.429l-0.034 0.024c-0.302 0.22-0.646 0.428-1.006 0.606l-0.042 0.019c-0.28 0.132-0.581 0.24-0.829 0.24s-0.548-0.108-0.829-0.24c-0.402-0.197-0.746-0.405-1.069-0.639l0.021 0.014c-0.967-0.7-1.797-1.509-2.496-2.424l-0.021-0.029c-1.678-2.195-3.061-5.513-2.465-9.99 0.080-0.593 0.488-1.074 1.033-1.259l0.011-0.003c0.512-0.192 1.475-0.489 2.447-0.764l0.44-0.106z"></path>
<path d="M9.5 6.5c0 0 0 0.001 0 0.001 0 0.649-0.412 1.202-0.99 1.411l-0.010 0.003 0.385 1.99c0.006 0.029 0.009 0.061 0.009 0.095 0 0.276-0.224 0.5-0.5 0.5-0 0-0 0-0 0h-0.788c-0.276-0.001-0.499-0.224-0.499-0.5 0-0.034 0.003-0.066 0.010-0.098l-0.001 0.003 0.384-1.99c-0.588-0.212-1-0.765-1-1.414 0-0.828 0.672-1.5 1.5-1.5s1.5 0.671 1.5 1.499v0z"></path>
</symbol>
<symbol id="icon-bag-dash" viewBox="0 0 16 16">
<path d="M5.5 10c0-0.276 0.224-0.5 0.5-0.5v0h4c0.276 0 0.5 0.224 0.5 0.5s-0.224 0.5-0.5 0.5v0h-4c-0.276 0-0.5-0.224-0.5-0.5v0z"></path>
<path d="M8 1c1.381 0 2.5 1.119 2.5 2.5v0 0.5h-5v-0.5c0-1.381 1.119-2.5 2.5-2.5v0zM11.5 4v-0.5c0-1.933-1.567-3.5-3.5-3.5s-3.5 1.567-3.5 3.5v0 0.5h-3.5v10c0 1.105 0.895 2 2 2v0h10c1.105 0 2-0.895 2-2v0-10h-3.5zM2 5h12v9c0 0.552-0.448 1-1 1v0h-10c-0.552 0-1-0.448-1-1v0-9z"></path>
</symbol>
<symbol id="icon-search" viewBox="0 0 16 16">
<path d="M11.742 10.344c0.785-1.062 1.257-2.397 1.257-3.842 0-3.59-2.91-6.5-6.5-6.5s-6.5 2.91-6.5 6.5c0 3.59 2.91 6.5 6.5 6.5 1.447 0 2.783-0.473 3.864-1.272l-0.018 0.012h-0.001c0.030 0.040 0.062 0.078 0.098 0.115l3.85 3.85c0.181 0.181 0.431 0.293 0.707 0.293 0.552 0 1-0.448 1-1 0-0.276-0.112-0.526-0.293-0.707l-3.85-3.85c-0.035-0.035-0.073-0.068-0.112-0.098l-0.003-0.002zM12 6.5c0 3.038-2.462 5.5-5.5 5.5s-5.5-2.462-5.5-5.5v0c0-3.038 2.462-5.5 5.5-5.5s5.5 2.462 5.5 5.5v0z"></path>
</symbol>
<symbol id="icon-wallet2" viewBox="0 0 16 16">
<path d="M12.136 0.326c0.109-0.028 0.235-0.045 0.364-0.045 0.828 0 1.499 0.671 1.5 1.499v1.22h0.5c0.828 0 1.5 0.672 1.5 1.5v0 9c0 0.828-0.672 1.5-1.5 1.5v0h-13c-0.828 0-1.5-0.672-1.5-1.5v0-9c0-0 0-0 0-0.001 0-0.805 0.633-1.461 1.429-1.498l0.003-0 10.704-2.675zM5.562 3h7.438v-1.22c-0.001-0.276-0.224-0.499-0.5-0.499-0.043 0-0.085 0.005-0.124 0.016l0.003-0.001-6.817 1.704zM1.5 4c-0.276 0-0.5 0.224-0.5 0.5v0 9c0 0.276 0.224 0.5 0.5 0.5v0h13c0.276 0 0.5-0.224 0.5-0.5v0-9c0-0.276-0.224-0.5-0.5-0.5v0h-13z"></path>
</symbol>
</defs>
</svg>
